<svg data-name="Layer 1" xmlns="http://www.w3.org/2000/svg" viewBox="0 0 52.97 10.09"><path d="M0 9.9L1 0h2l2.41 6.19L7.78 0h2.06l1 9.9H8.88l-.61-6.41L6 9.65H4.81L2.56 3.49 1.94 9.9zm15 .19a2.9 2.9 0 01-1.54-.42 3 3 0 01-1.1-1.16 3.46 3.46 0 01-.36-1.7 3.48 3.48 0 01.39-1.66 3 3 0 011.08-1.16A2.91 2.91 0 0115 3.56a3 3 0 011.22.25 2.42 2.42 0 01.93.69v-.75H19v6.14h-1.85v-.8a2.91 2.91 0 01-1 .74 2.73 2.73 0 01-1.15.26zm.55-1.57a1.65 1.65 0 00.85-.19 1.55 1.55 0 00.58-.6 1.8 1.8 0 00.21-.88 1.77 1.77 0 00-.19-.9 1.58 1.58 0 00-.6-.62 1.75 1.75 0 00-1.7 0 1.59 1.59 0 00-.59.6 1.9 1.9 0 000 1.75 1.57 1.57 0 00.58.6 1.65 1.65 0 00.86.24zm6.94 1.57a3.73 3.73 0 01-1.4-.25 2.59 2.59 0 01-1-.72l.77-1.24a3 3 0 00.8.62 1.82 1.82 0 00.84.22 1 1 0 00.4-.08.63.63 0 00.27-.23.62.62 0 00.1-.36.52.52 0 00-.14-.38 1.27 1.27 0 00-.41-.25L22 7.14a6.26 6.26 0 01-.71-.35 1.71 1.71 0 01-.56-.5 1.33 1.33 0 01-.21-.77 1.66 1.66 0 01.32-1 2.11 2.11 0 01.88-.68A3.19 3.19 0 0123 3.57a3.61 3.61 0 011 .14 6.09 6.09 0 011 .42l-.59 1.2A2.64 2.64 0 0023 4.82a.9.9 0 00-.55.15.45.45 0 00-.2.38.46.46 0 00.21.38 2.25 2.25 0 00.52.28l.59.23a5.25 5.25 0 01.82.37 1.55 1.55 0 01.61.52 1.63 1.63 0 01.2.87 1.94 1.94 0 01-.32 1.13 2 2 0 01-.92.71 3.83 3.83 0 01-1.47.25zm5.78 0a3.73 3.73 0 01-1.4-.25 2.59 2.59 0 01-1-.72l.77-1.24a3 3 0 00.8.62 1.82 1.82 0 00.84.22 1 1 0 00.4-.08.63.63 0 00.27-.23.62.62 0 00.1-.36.52.52 0 00-.14-.38 1.27 1.27 0 00-.41-.25l-.71-.3a6.26 6.26 0 01-.71-.35 1.71 1.71 0 01-.56-.5 1.33 1.33 0 01-.21-.77 1.66 1.66 0 01.32-1 2.11 2.11 0 01.88-.68 3.19 3.19 0 011.29-.25 3.61 3.61 0 011 .14 6.09 6.09 0 011.07.42l-.68 1.2a2.64 2.64 0 00-1.39-.5.9.9 0 00-.55.15.45.45 0 00-.2.38.46.46 0 00.21.38 2.25 2.25 0 00.52.28l.59.23a5.25 5.25 0 01.82.37 1.55 1.55 0 01.56.53 1.63 1.63 0 01.2.87 1.94 1.94 0 01-.32 1.13 2 2 0 01-.92.71 3.83 3.83 0 01-1.44.23zm4.97-7.61a1.06 1.06 0 01-.55-.15 1.12 1.12 0 01-.4-.4 1.06 1.06 0 01-.15-.6 1 1 0 01.15-.55 1.13 1.13 0 01.4-.39 1.06 1.06 0 01.55-.06 1 1 0 01.55.15 1.12 1.12 0 01.39.39 1 1 0 01.15.55 1.08 1.08 0 01-.15.55 1.11 1.11 0 01-.39.4 1 1 0 01-.55.11zm-.92 7.42V3.75h1.84v6.14zm5.68 0l-3.27-6.15h2.17l1.67 3.71 1.67-3.71h2.17l-3.23 6.14zm8 .19a3.68 3.68 0 01-1.79-.43 3.32 3.32 0 01-1.25-1.17 3.08 3.08 0 01-.46-1.67 3.15 3.15 0 01.26-1.28 3.22 3.22 0 01.73-1 3.39 3.39 0 011.09-.7 3.54 3.54 0 011.34-.25 3.43 3.43 0 011.68.4 2.88 2.88 0 011.13 1.11 3.27 3.27 0 01.4 1.65v.35h-4.75a1.53 1.53 0 00.21.82 1.45 1.45 0 00.6.54 1.94 1.94 0 00.89.2 1.86 1.86 0 00.85-.19 2.3 2.3 0 00.71-.59l1.36.63a3 3 0 01-1.22 1.16 3.71 3.71 0 01-1.78.42zm-1.54-4h2.84a1.38 1.38 0 00-.3-.66 1.28 1.28 0 00-.5-.4 1.6 1.6 0 00-.68-.14 1.7 1.7 0 00-.71.14 1.2 1.2 0 00-.49.4 1.28 1.28 0 00-.18.62z" fill="#fff"/><path d="M51.78 10.09a1.17 1.17 0 01-.61-.16 1.2 1.2 0 01-.43-.43 1.23 1.23 0 010-1.21 1.2 1.2 0 01.44-.43 1.18 1.18 0 01.61-.16 1.15 1.15 0 01.61.16 1.24 1.24 0 01.43.43 1.21 1.21 0 010 1.21 1.23 1.23 0 01-.43.43 1.15 1.15 0 01-.62.16z" fill="#4b66af"/></svg>