<svg version="1.1" id="Layer_1" xmlns="http://www.w3.org/2000/svg" x="0" y="0" viewBox="0 0 494.8 304" xml:space="preserve"><style>.st3{fill:#407bff}.st4{opacity:.6;fill:#fff}.st6{opacity:.4}.st7{opacity:.3}.st8{opacity:.5;fill:#fff}.st9{fill:#e4897b}.st10{fill:#263238}.st12{opacity:.6}.st14{opacity:.1}.st15{opacity:.4;fill:#fff}</style><path opacity=".42" fill="#757575" d="M67.9 249.3H432v.2H67.9z"/><path d="M317.9 257H343v.2h-25.1zm-611.2.1h19.4v.3h-19.4zm515.4-.4h28.6v.2h-28.6zm-13.5-2.6h12.8v.2h-12.8zm129.9.1h38.6v.2h-38.6z" fill="#e0e0e0"/><g opacity=".28"><path class="st3" d="M387.8 158.1c-9-13.6-.8-28.3-2.1-43.5-1.4-15.2-15.8-18.5-13.1-31.3 3.2-14.9-5.3-29.2-14.8-29.2s-18 14.3-14.8 29.2c2.7 12.9-11.7 16.2-13.1 31.3-1.4 15.2 6.8 29.8-2.1 43.5-9 13.6-6.6 31.7-1.6 40.7 1.4 2.5 3 4.7 4.8 6.6 14.3 15.5 39.2 15.5 53.5 0 1.8-1.9 3.4-4.1 4.8-6.6 5.1-9 7.5-27-1.5-40.7z"/><path class="st3" d="M362.3 249.3h-9.1v-76.7c0-2.2 1.8-4.1 4.1-4.1h.9c2.2 0 4.1 1.8 4.1 4.1v76.7zm-61.5 0h-12.3V173c0-3.4 2.8-6.2 6.2-6.2 3.4 0 6.2 2.8 6.2 6.2v76.3z"/><circle class="st3" cx="294.7" cy="190.7" r="38"/><circle class="st3" cx="324.8" cy="175.7" r="15"/><circle class="st3" cx="264" cy="166.8" r="8.9"/><circle class="st3" cx="273.6" cy="162.3" r="6.2"/><path class="st3" d="M216.4 203.8c-6.3.9-11.8 3.2-16.5 6.3 0-5.8-1.1-11.2-3.8-15.7-4.1 4-7.5 9.2-10.2 14.8-1-10.5-3.8-20.7-9.9-27.1-9.2 5.8-13.9 15.4-16.1 25.5-3.6-6.5-8.7-12.5-15.6-16.9-5.6 5.9-7.4 14.1-7.2 22.4-6.4-7.4-13.4-13.2-20.3-13.9-1.7 11.7 1.9 22.8 6.5 31.5 6 11.4 18 18.5 30.9 18.5h29.9c12.8 0 24.7-6.8 30.7-18.1 3.7-7 5.5-16.2 1.6-27.3zm-8.5-151.3c3.7-10.8.8-18.5-8.3-18.5-5.7 0-12.7 3-19.5 8-.8-2.8-3-4.5-6.5-4.5-6.2 0-14.7 5.2-21.3 12.6-1.6-1.6-3.9-2.6-6.9-2.8-5.9-.3-13 2.7-19.3 7.5-.5-.8-1.5-1.3-2.7-1.4-3.4-.2-8 2.8-10.3 6.8-.1.2-.3.5-.4.7h97c.3-3.6-.3-6.4-1.8-8.4zm.3 65.7c1.8-5.3.4-9.1-4-9.1-2.8 0-6.2 1.5-9.5 3.9-.4-1.4-1.4-2.2-3.2-2.2-3 0-7.2 2.5-10.4 6.1-.8-.8-1.9-1.3-3.4-1.4-2.9-.2-6.4 1.3-9.4 3.7-.3-.4-.7-.6-1.3-.7-1.7-.1-3.9 1.4-5 3.3-.1.1-.1.2-.2.4h47.1c.3-1.6 0-3-.7-4zm109.3-40c-.4-.1-.7-.1-1.1-.1.3-5.3-1.7-8.7-6-8.7-3.1 0-6.9 1.8-10.8 4.7 1.1-10.3-2.5-16.9-10.5-16.9-6.5 0-14.8 4.3-22.9 11.4-.7-4-3.1-6.4-7.1-6.4-7.1 0-17.2 7.5-25.2 18-1.7-2.3-4.4-3.8-7.8-4-6.7-.5-15.1 3.8-22.6 10.8-.6-1.2-1.6-1.9-3.1-2-3.7-.3-8.8 3.6-11.7 8.7h134.8c3.1-7.8.6-14.6-6-15.5z"/></g><ellipse class="st3" cx="249.9" cy="273.9" rx="141.2" ry="8.2"/><path class="st3" d="M103.4 80.4l166.1 23.9 22.2 22.5z"/><path class="st4" d="M103.4 80.4l166.1 23.9 22.2 22.5z"/><path class="st3" d="M103.4 80.4l166.1 23.9-7.7 32.6z"/><path opacity=".2" d="M103.4 80.4l166.1 23.9-7.7 32.6z"/><path class="st3" d="M258.4 42.8L268 88c.5 2.4-1.1 4.9-3.5 5.4l-86 18.4c-2.4.5-4.9-1.1-5.4-3.5L163.5 63c-.3-1.3 0-2.6.7-3.6.6-.9 1.6-1.6 2.8-1.8l86-18.4c1.2-.2 2.3 0 3.3.5 1 .8 1.8 1.8 2.1 3.1z"/><path class="st6" d="M258.4 42.8L268 88c.5 2.4-1.1 4.9-3.5 5.4l-86 18.4c-2.4.5-4.9-1.1-5.4-3.5L163.5 63c-.3-1.3 0-2.6.7-3.6.6-.9 1.6-1.6 2.8-1.8l86-18.4c1.2-.2 2.3 0 3.3.5 1 .8 1.8 1.8 2.1 3.1z"/><path class="st3" d="M256.2 39.8l-28.7 35.3c-5.5 6.7-14.9 8.8-22.7 4.8l-40.6-20.5c.6-.9 1.6-1.6 2.8-1.8l86-18.4c1.1-.2 2.3.1 3.2.6zM103.4 80.4l137 32.6 21.4 23.9z"/><path class="st4" d="M103.4 80.4l137 32.6 21.4 23.9z"/><path transform="rotate(-59.635 160.838 116.593)" class="st3" d="M160.5 107.8h.7v17.7h-.7z"/><path transform="rotate(-59.635 177.924 126.606)" class="st3" d="M177.6 123.4h.7v6.4h-.7z"/><path class="st3" d="M103.4 80.4l137 32.6-26.6 32.1zm183.2 76.3c-.2 0-.4 0-.5-.1l-22.3-8.8c-.7-.3-1.1-1.1-.8-1.9.3-.7 1.1-1.1 1.9-.8l22.3 8.8c.7.3 1.1 1.1.8 1.9-.3.5-.8.9-1.4.9z"/><path class="st7" d="M286.6 156.7c-.2 0-.4 0-.5-.1l-22.3-8.8c-.7-.3-1.1-1.1-.8-1.9.3-.7 1.1-1.1 1.9-.8l22.3 8.8c.7.3 1.1 1.1.8 1.9-.3.5-.8.9-1.4.9z"/><path class="st3" d="M285.3 143.9c-.2 0-.4 0-.5-.1l-12-4.7c-.7-.3-1.1-1.1-.8-1.9.3-.7 1.1-1.1 1.9-.8l12 4.7c.7.3 1.1 1.1.8 1.9-.3.5-.8.9-1.4.9z"/><path class="st8" d="M285.3 143.9c-.2 0-.4 0-.5-.1l-12-4.7c-.7-.3-1.1-1.1-.8-1.9.3-.7 1.1-1.1 1.9-.8l12 4.7c.7.3 1.1 1.1.8 1.9-.3.5-.8.9-1.4.9z"/><path class="st3" d="M260.2 156.5c-.2 0-.4 0-.5-.1l-21.8-8.6c-.7-.3-1.1-1.1-.8-1.9.3-.7 1.1-1.1 1.9-.8l21.8 8.6c.7.3 1.1 1.1.8 1.9-.2.5-.8.9-1.4.9z"/><path class="st7" d="M260.2 156.5c-.2 0-.4 0-.5-.1l-21.8-8.6c-.7-.3-1.1-1.1-.8-1.9.3-.7 1.1-1.1 1.9-.8l21.8 8.6c.7.3 1.1 1.1.8 1.9-.2.5-.8.9-1.4.9z"/><path class="st9" d="M339 90.8c1.9 3.8 3.7 7.5 5.4 11.4 1.7 3.9 3.3 7.8 4.6 11.9l.5 1.6c.1.3.2.7.3 1.1.1.3.1.7.2 1 .2 1.3.2 2.4.2 3.5 0 2.2-.1 4.4-.3 6.5-.4 4.3-1.1 8.4-2 12.5l-4-.4c-.1-4.1-.1-8.2-.2-12.3-.1-2-.2-4-.4-5.9-.1-.9-.3-1.9-.4-2.6 0-.2-.1-.4-.1-.5l-.2-.4-.5-1.4c-1.5-3.7-3.2-7.4-5-11.1l-5.3-11.1 7.2-3.8z"/><path class="st9" d="M344 138.6l-1.9 3.5 6 1.7s1.1-2.8-.2-5l-3.9-.2z"/><path class="st9" d="M339.8 147.1l5.5.4 2.8-3.8-6-1.6z"/><ellipse transform="rotate(-78.51 313.414 65.55)" class="st10" cx="313.4" cy="65.6" rx=".8" ry=".5"/><path d="M313.6 66.4s-1.5 2.2-2.8 3.2c.6.9 1.9.8 1.9.8l.9-4z" fill="#de5753"/><path class="st10" d="M316 63.6c-.1 0-.1 0-.2-.1-.8-.8-1.7-.7-1.7-.7-.1 0-.3-.1-.3-.2s.1-.3.2-.3c0 0 1.2-.2 2.2.8.1.1.1.3 0 .4-.1.1-.2.1-.2.1z"/><path class="st9" d="M326 71.6c-.8 3.9-1.5 11.1 1.2 13.7 0 0-1.1 4-8.3 4-8 0-3.8-4-3.8-4 4.4-1 4.3-4.3 3.5-7.3l7.4-6.4z"/><path class="st10" d="M328.3 87.8c.6-1.9 1.2-4.1-.1-4.8-1.4-.8-9.4-1.5-12.1-.1-2.7 1.4-2 5.3-2 5.3l14.2-.4z"/><path class="st3" d="M345.1 269.4c-.5 0-1.1-.1-1.3-.4-.1-.1-.2-.3 0-.6.1-.2.2-.3.4-.3.8-.2 2.3.8 2.3.9l.1.1s0 .1-.1.1c-.3.1-.9.2-1.4.2zm-.7-1h-.2c-.1 0-.2.1-.2.2-.1.2 0 .3 0 .3.2.3 1.3.3 2.1.2-.4-.3-1.2-.7-1.7-.7z"/><path class="st3" d="M346.4 269.2c-.6-.3-1.7-1.5-1.6-2.1 0-.1.1-.3.4-.3.2 0 .4 0 .5.2.6.5.7 2.1.8 2.1.1.1 0 .1-.1.1.1 0 .1 0 0 0zm-1-2.1c-.1 0-.1 0 0 0-.2 0-.2.1-.2.1-.1.4.6 1.2 1.2 1.7-.1-.5-.2-1.4-.6-1.7-.2-.1-.3-.1-.4-.1zm-32.5 2.3c-.7 0-1.3-.1-1.6-.4-.1-.1-.1-.3 0-.6.1-.1.2-.2.4-.3.9-.2 2.8.8 2.8.9l.1.1c0 .1 0 .1-.1.1-.3.1-.9.2-1.6.2zm-.8-1h-.2c-.1 0-.2.1-.2.2-.1.2-.1.2 0 .3.2.3 1.6.4 2.6.2-.6-.3-1.6-.7-2.2-.7z"/><path class="st3" d="M314.6 269.2c-.1 0-.1 0 0 0-.7-.3-2-1.5-1.9-2.1 0-.1.1-.3.5-.4.3 0 .5 0 .7.2.7.6.8 2 .8 2.1 0 .2 0 .2-.1.2zm-1.3-2.1c-.1 0-.1 0 0 0-.3 0-.3.1-.3.1-.1.4.8 1.3 1.5 1.7-.1-.4-.3-1.3-.7-1.7-.2-.1-.4-.1-.5-.1z"/><path class="st9" d="M320.4 269.1h-5.3l-.5-12.4h5.3zm32.2 0h-5.4l-2.7-12.4h5.4z"/><path class="st10" d="M346.8 268.5h6c.2 0 .4.2.5.4l1.1 4.8c.1.5-.3 1-.8 1-2.1 0-3.1-.2-5.8-.2-1.6 0-5 .2-7.2.2s-2.5-2.2-1.6-2.4c4.1-.9 5.7-2.1 7-3.3.2-.4.5-.5.8-.5zm-31.7 0h5.8c.2 0 .4.2.5.4l1.1 4.8c.1.5-.3 1-.8 1-2.1 0-5.2-.2-7.8-.2-3.1 0-5.8.2-9.4.2-2.2 0-2.8-2.2-1.9-2.4 4.2-.9 7.6-1 11.2-3.2.4-.4.9-.6 1.3-.6z"/><path class="st9" d="M312.5 94.7c-4.5-.4-8.9-.9-13.3-1.8-2.2-.4-4.4-.9-6.6-1.5-2.2-.6-4.4-1.3-6.7-2.2-.6-.2-1.1-.5-1.7-.8-.7-.4-1.3-.7-1.8-1.1-1.1-.7-2-1.4-2.8-2.1-1.8-1.4-3.4-2.9-5.1-4.4-3.3-3-6.3-6.1-9.3-9.4l2.7-3 10.6 7.6c1.7 1.3 3.5 2.5 5.2 3.6.9.6 1.7 1.1 2.5 1.6l1 .5c.4.2.9.3 1.3.5 3.7 1.2 7.9 2 12 2.7 4.2.7 8.5 1.2 12.6 1.6l-.6 8.2z"/><path class="st3" d="M336.8 86.5c5 1.1 10.1 15.8 10.1 15.8l-10.3 7.4s-2.9-6.8-5.7-12.8c-3.1-6.2.7-11.6 5.9-10.4z"/><path class="st6" d="M336.8 86.5c5 1.1 10.1 15.8 10.1 15.8l-10.3 7.4s-2.9-6.8-5.7-12.8c-3.1-6.2.7-11.6 5.9-10.4z"/><path class="st3" d="M333.9 94.5l-2 4.6c2.1 4.6 4.1 9.1 4.6 10.3-.2-5.4-1.2-12.1-2.6-14.9z"/><path class="st12" d="M333.9 94.5l-2 4.6c2.1 4.6 4.1 9.1 4.6 10.3-.2-5.4-1.2-12.1-2.6-14.9z"/><path class="st3" d="M306.8 86.8s-5.7 6.4-.3 46.2h28.6c.2-4.4-2.6-25.8 1.7-46.5 0 0-4.9-1-9.6-1.2-3.7-.2-9-.3-12.2 0-4.2.4-8.2 1.5-8.2 1.5z"/><path class="st6" d="M306.8 86.8s-5.7 6.4-.3 46.2h28.6c.2-4.4-2.6-25.8 1.7-46.5 0 0-4.9-1-9.6-1.2-3.7-.2-9-.3-12.2 0-4.2.4-8.2 1.5-8.2 1.5z"/><path class="st3" d="M304.7 94.5c-.2 1.5-.3 3.3-.4 5.4 2.4-.7 5.3-1.9 8-3.7l-7.6-1.7z"/><path class="st12" d="M304.7 94.5c-.2 1.5-.3 3.3-.4 5.4 2.4-.7 5.3-1.9 8-3.7l-7.6-1.7z"/><path class="st3" d="M316.9 95.3c-3.8 3.4-18.5 3.1-18.5 3.1l-.4-14.2s8.3 1.2 14.9 1.1c8.2-.2 8.2 6.3 4 10z"/><path class="st6" d="M316.9 95.3c-3.8 3.4-18.5 3.1-18.5 3.1l-.4-14.2s8.3 1.2 14.9 1.1c8.2-.2 8.2 6.3 4 10z"/><path class="st9" d="M268 68.5l-3.7-4.3-3.9 4.3s2.4 4.1 6.3 3.4l1.3-3.4z"/><path class="st9" d="M259.1 59.3l-1.4 5.6 2.7 3.7 3.9-4.3z"/><path d="M314.6 256.7l.2 6.4h5.4l-.3-6.4zm35.3 0h-5.4l1.4 6.4h5.4z" fill="#ce6f64"/><path class="st10" d="M317.8 60.3c-4.8-2.2-6.3-11.9 7.5-9.5 0 0-2.1 2.3 2.1 3.8s.7 10.5-9.6 5.7z"/><path class="st9" d="M328.2 67.6c-1.4 5.1-1.9 8.2-5.1 10.3-4.8 3.2-10.7-.5-10.9-5.9-.2-4.9 2.1-12.5 7.6-13.5s9.8 4 8.4 9.1z"/><path class="st10" d="M325.1 53.4c3.3 1.8 7.7 2.9 7.3 5.5-.5 3.2 2.7 1.2 1.9 5.9-.5 3.1-6.2 12.4-10.2 12-6-.7-5.3-9.9-5.3-14.7 0-2.8-.1-12.2 6.3-8.7z"/><path class="st10" d="M318.1 57.5c-1.5.3-3.4 8.7 2.3 9.5 6.5.9-2.3-9.5-2.3-9.5z"/><path class="st10" d="M318.3 60.5c-1.8.2-5.8-2-5.3-5.2-.1 0 2.5 3.8 5.3 5.2z"/><path class="st9" d="M320.9 67.7c-.6 1.3-1.6 2.3-2.6 2.8-1.5.8-2.4-.4-2.1-1.9.3-1.4 1.5-3.5 3.1-3.6 1.5-.2 2.2 1.3 1.6 2.7z"/><path class="st10" d="M328.9 61.8c1.1-.5 3.5-1.8 4.2-5.3 0-.1 2.4 6.7-4.2 5.3z"/><path class="st10" d="M335 61.7c-.5-.3-1.8-1-3.5-.3 0 0 2.2-2.9 3.5.3z"/><path class="st3" d="M316.6 133s6.1 40.9 9.4 56.2c3.7 16.8 17.4 72.6 17.4 72.6h9.8s-9.1-54.5-11.2-71.1c-2.3-18-7-57.7-7-57.7h-18.4z"/><path class="st8" d="M316.6 133s6.1 40.9 9.4 56.2c3.7 16.8 17.4 72.6 17.4 72.6h9.8s-9.1-54.5-11.2-71.1c-2.3-18-7-57.7-7-57.7h-18.4z"/><path class="st3" d="M341.9 258.3l1 3.8h11l-.2-3.4-11.8-.4z"/><path class="st14" d="M341.9 258.3l1 3.8h11l-.2-3.4-11.8-.4z"/><path class="st3" d="M320.5 147.6c7 1.4 6.3 27.6 5.4 41-2-9.5-5-27.8-7-40.8.4-.2 1-.3 1.6-.2z"/><path class="st15" d="M320.5 147.6c7 1.4 6.3 27.6 5.4 41-2-9.5-5-27.8-7-40.8.4-.2 1-.3 1.6-.2z"/><path class="st3" d="M306.5 133s-.7 40-.2 56.3c.6 17 6.5 72.5 6.5 72.5h9.1s.3-54.6.7-71.2c.4-18.2 2.6-57.6 2.6-57.6h-18.7z"/><path class="st8" d="M306.5 133s-.7 40-.2 56.3c.6 17 6.5 72.5 6.5 72.5h9.1s.3-54.6.7-71.2c.4-18.2 2.6-57.6 2.6-57.6h-18.7z"/><path class="st3" d="M314.7 255.4s-.1-.1 0 0c-1.7-15.5-5.5-52.7-5.9-66-.5-13.6 0-44.2.1-53.2 0 0 0-.1.1-.1s.1 0 .1.1c-.1 9-.6 39.6-.1 53.2.5 13.3 4.2 50.6 5.8 65.9 0 0 0 .1-.1.1z"/><path class="st15" d="M314.7 255.4s-.1-.1 0 0c-1.7-15.5-5.5-52.7-5.9-66-.5-13.6 0-44.2.1-53.2 0 0 0-.1.1-.1s.1 0 .1.1c-.1 9-.6 39.6-.1 53.2.5 13.3 4.2 50.6 5.8 65.9 0 0 0 .1-.1.1z"/><path class="st3" d="M311.1 258.3l.5 3.8h11l.3-3.4-11.8-.4z"/><path class="st14" d="M311.1 258.3l.5 3.8h11l.3-3.4-11.8-.4z"/></svg>